<svg width="80" height="76" viewBox="0 0 80 76" fill="none" xmlns="http://www.w3.org/2000/svg">
<path d="M0.0185547 72.3563C0.91543 70.1485 1.58105 67.8594 2.3373 65.6016C4.87376 58.0443 7.39408 50.4813 9.89824 42.9125C10.5467 40.9688 11.2061 40.5 13.267 40.5C14.3076 40.5 15.3498 40.5266 16.392 40.4891C16.8936 40.4719 17.1732 40.6094 17.4154 41.0844C21.8311 49.6078 27.8123 56.9219 34.8436 63.411C37.8826 66.2235 42.2029 66.1531 45.2232 63.3531C51.6373 57.4156 57.1545 50.7438 61.4982 43.1344C61.8967 42.4344 62.2795 41.7281 62.6264 40.9969C62.8076 40.611 63.0342 40.475 63.4607 40.486C64.6826 40.5156 65.9061 40.486 67.1295 40.4969C68.6654 40.4969 69.4873 41.086 69.9795 42.5453C71.0311 45.6703 72.067 48.7953 73.1045 51.9313C75.3055 58.5334 77.5071 65.1349 79.7092 71.736C79.7795 71.9453 79.7654 72.2047 79.9857 72.361V73.7672C79.1686 75.275 77.8404 75.5219 76.2451 75.511C68.1826 75.4563 60.1201 75.486 52.0561 75.486C35.7227 75.486 19.3894 75.486 3.05605 75.486C2.19512 75.486 1.38574 75.3875 0.76543 74.7297C0.500037 74.4203 0.250749 74.0975 0.0185547 73.7625V72.3563Z" fill="#FBE303"/>
<path d="M62.5006 23.2109C62.4241 26.7567 61.7424 30.2634 60.4849 33.5797C57.5959 41.3625 52.8974 47.9906 47.3771 54.0937C45.6614 56.0167 43.8486 57.8509 41.9459 59.589C40.6146 60.7875 39.3896 60.8093 38.0849 59.5984C31.8865 53.8422 26.4912 47.4359 22.4256 39.9828C20.0959 35.7109 18.4021 31.2109 17.7131 26.3562C16.1537 15.3968 22.8131 4.78435 33.3443 1.52497C44.7506 -2.00003 57.0037 4.07028 61.0943 15.2765C62.0318 17.8218 62.4521 20.4453 62.5006 23.2109ZM40.0006 33C41.9799 33.0034 43.9157 32.4193 45.5629 31.3217C47.21 30.2241 48.4944 28.6624 49.2534 26.8344C50.0123 25.0063 50.2117 22.9942 49.8263 21.0527C49.4409 19.1113 48.488 17.3279 47.0882 15.9284C45.6885 14.5289 43.905 13.5762 41.9635 13.1911C40.022 12.806 38.0098 13.0057 36.1819 13.7649C34.354 14.5242 32.7924 15.8088 31.6951 17.4561C30.5978 19.1035 30.014 21.0394 30.0178 23.0187C30.0256 25.6638 31.0799 28.1982 32.9504 30.0684C34.8209 31.9386 37.3555 32.9925 40.0006 33Z" fill="#454950"/>
<path d="M39.9999 33C38.0205 33 36.0856 32.4125 34.4404 31.3121C32.7951 30.2116 31.5134 28.6476 30.7576 26.8181C30.0018 24.9887 29.806 22.9761 30.1949 21.0353C30.5838 19.0944 31.54 17.3127 32.9422 15.9157C34.3445 14.5186 36.1298 13.5692 38.0721 13.1876C40.0144 12.806 42.0262 13.0094 43.8528 13.772C45.6794 14.5346 47.2386 15.8222 48.3329 17.4716C49.4272 19.121 50.0074 21.0581 49.9999 23.0375C49.9867 25.6821 48.9277 28.2142 47.0542 30.0807C45.1806 31.9473 42.6446 32.9967 39.9999 33Z" fill="#FEFEFE"/>
</svg>
