<?xml version="1.0" encoding="UTF-8"?>
<!DOCTYPE svg PUBLIC "-//W3C//DTD SVG 1.1//EN" "http://www.w3.org/Graphics/SVG/1.1/DTD/svg11.dtd">
<!-- Creator: CorelDRAW X6 -->
<svg xmlns="http://www.w3.org/2000/svg" xml:space="preserve" width="40px" height="45px" version="1.1" style="shape-rendering:geometricPrecision; text-rendering:geometricPrecision; image-rendering:optimizeQuality; fill-rule:evenodd; clip-rule:evenodd"
viewBox="0 0 40 45"
 xmlns:xlink="http://www.w3.org/1999/xlink">
 <defs>
  <style type="text/css">
   <![CDATA[
    .fil2 {fill:#171B24}
    .fil1 {fill:#FBE303}
    .fil0 {fill:#FCEC41}
    .fil3 {fill:#FDF074}
   ]]>
  </style>
 </defs>
 <g id="Слой_x0020_1">
  <metadata id="CorelCorpID_0Corel-Layer"/>
  <path class="fil0" d="M10 7l24 0c3,0 6,3 6,6l0 24c0,3 -3,6 -6,6l-24 0c-3,0 -6,-3 -6,-6l0 -24c0,-3 3,-6 6,-6z"/>
  <path class="fil1" d="M8 9l24 0c3,0 6,3 6,6l0 24c0,3 -3,6 -6,6l-24 0c-3,0 -6,-3 -6,-6l0 -24c0,-3 3,-6 6,-6z"/>
  <path class="fil2" d="M17 15c0,0 0,0 0,0 0,0 0,0 0,2 0,1 0,2 0,2 0,1 -1,1 -1,0 0,0 0,-1 0,-1 0,-1 0,-1 0,-1 0,0 -1,0 -1,1 -1,1 -3,2 -3,4 0,1 -1,2 -1,2l0 0 0 0c-1,0 -1,0 -1,0 0,0 0,1 0,1 0,0 1,1 1,1 0,0 3,0 11,0 12,0 11,0 12,0 0,-1 0,-1 0,-2 0,0 -1,0 -1,0l0 0 0 0c0,-2 -2,-4 -3,-5 -1,-1 -2,-2 -2,-2 0,0 0,1 0,1 0,1 0,1 0,1 0,0 0,0 -1,0 0,0 -1,0 -1,-1 0,0 0,-1 0,-2 0,-2 0,-2 0,-3 0,0 0,0 -3,0 -2,0 -3,0 -3,0zm-6 14c-1,0 -1,1 -1,1l0 0 -1 0c-1,0 -1,0 -1,0 0,0 0,0 0,1 0,1 0,1 0,1 0,0 0,0 1,0l1 0 0 1c0,1 0,1 0,1 0,0 2,2 2,2 0,0 6,0 6,0 0,0 0,0 1,-1 0,-1 1,-1 1,-1 0,0 1,1 1,1 1,1 1,1 1,1 0,0 6,0 6,0 0,0 2,-2 2,-2 0,0 0,-1 0,-1l0 -1 1 0c1,0 1,0 1,0 0,0 0,0 0,-1 0,-1 0,-1 0,-1 0,0 0,0 -1,0l-1 0 0 0c0,0 0,-1 0,-1 0,0 0,0 0,0l0 0 -9 0c-5,0 -9,0 -9,0zm17 4l0 2 -1 1 -1 1 -2 0 -2 0 0 0c0,0 -1,-1 -1,-1 -1,-1 -2,-1 -3,-1 0,0 -1,1 -2,2l0 0 -2 0 -2 0 -1 -1 -1 -1 0 -2 0 -2 9 0 9 0 0 2z"/>
  <path class="fil3" d="M14 7c0,-4 3,-7 7,-7 4,0 7,3 7,7l-2 0c0,-3 -2,-5 -5,-5 -3,0 -5,2 -5,5l-2 0z"/>
  <path class="fil1" d="M13 9c0,-4 3,-7 7,-7l1 0c4,0 7,3 7,7l-2 0c0,-3 -2,-5 -5,-5l-1 0c-3,0 -5,2 -5,5l-2 0z"/>
 </g>
</svg>
